<svg xmlns="http://www.w3.org/2000/svg" width="708" height="1290" viewBox="0 0 708 1290">
<rect width="100%" height="100%" fill="white"/>
<line x1="289.0" y1="116.0" x2="307.0" y2="116.0" stroke="#444444" stroke-width="2"/>
<line x1="307.0" y1="116.0" x2="307.0" y2="90.0" stroke="#444444" stroke-width="2"/>
<line x1="307.0" y1="90.0" x2="419.0" y2="90.0" stroke="#444444" stroke-width="2"/>
<polygon points="419.0,90.0 411.0,86.0 411.0,94.0" fill="#444444" stroke="#444444"/>
<line x1="289.0" y1="142.0" x2="307.0" y2="142.0" stroke="#444444" stroke-width="2"/>
<line x1="307.0" y1="142.0" x2="307.0" y2="220.0" stroke="#444444" stroke-width="2"/>
<line x1="307.0" y1="220.0" x2="419.0" y2="220.0" stroke="#444444" stroke-width="2"/>
<polygon points="419.0,220.0 411.0,216.0 411.0,224.0" fill="#444444" stroke="#444444"/>
<line x1="289.0" y1="168.0" x2="319.0" y2="168.0" stroke="#444444" stroke-width="2"/>
<line x1="319.0" y1="168.0" x2="319.0" y2="246.0" stroke="#444444" stroke-width="2"/>
<line x1="319.0" y1="246.0" x2="419.0" y2="246.0" stroke="#444444" stroke-width="2"/>
<polygon points="419.0,246.0 411.0,242.0 411.0,250.0" fill="#444444" stroke="#444444"/>
<line x1="289.0" y1="194.0" x2="331.0" y2="194.0" stroke="#444444" stroke-width="2"/>
<line x1="331.0" y1="194.0" x2="331.0" y2="272.0" stroke="#444444" stroke-width="2"/>
<line x1="331.0" y1="272.0" x2="419.0" y2="272.0" stroke="#444444" stroke-width="2"/>
<polygon points="419.0,272.0 411.0,268.0 411.0,276.0" fill="#444444" stroke="#444444"/>
<line x1="289.0" y1="220.0" x2="343.0" y2="220.0" stroke="#444444" stroke-width="2"/>
<line x1="343.0" y1="220.0" x2="343.0" y2="298.0" stroke="#444444" stroke-width="2"/>
<line x1="343.0" y1="298.0" x2="419.0" y2="298.0" stroke="#444444" stroke-width="2"/>
<polygon points="419.0,298.0 411.0,294.0 411.0,302.0" fill="#444444" stroke="#444444"/>
<line x1="289.0" y1="246.0" x2="307.0" y2="246.0" stroke="#444444" stroke-width="2"/>
<line x1="307.0" y1="246.0" x2="307.0" y2="324.0" stroke="#444444" stroke-width="2"/>
<line x1="307.0" y1="324.0" x2="419.0" y2="324.0" stroke="#444444" stroke-width="2"/>
<polygon points="419.0,324.0 411.0,320.0 411.0,328.0" fill="#444444" stroke="#444444"/>
<line x1="289.0" y1="272.0" x2="319.0" y2="272.0" stroke="#444444" stroke-width="2"/>
<line x1="319.0" y1="272.0" x2="319.0" y2="350.0" stroke="#444444" stroke-width="2"/>
<line x1="319.0" y1="350.0" x2="419.0" y2="350.0" stroke="#444444" stroke-width="2"/>
<polygon points="419.0,350.0 411.0,346.0 411.0,354.0" fill="#444444" stroke="#444444"/>
<line x1="289.0" y1="298.0" x2="331.0" y2="298.0" stroke="#7F7F7F" stroke-width="2" stroke-dasharray="7,5"/>
<line x1="331.0" y1="298.0" x2="331.0" y2="376.0" stroke="#7F7F7F" stroke-width="2" stroke-dasharray="7,5"/>
<line x1="331.0" y1="376.0" x2="419.0" y2="376.0" stroke="#7F7F7F" stroke-width="2" stroke-dasharray="7,5"/>
<polygon points="419.0,376.0 411.0,372.0 411.0,380.0" fill="#7F7F7F" stroke="#7F7F7F"/>
<circle cx="289.0" cy="298.0" r="2.5" fill="black" stroke="black" stroke-width="2"/>
<line x1="289.0" y1="90.0" x2="343.0" y2="90.0" stroke="#444444" stroke-width="2"/>
<line x1="343.0" y1="90.0" x2="343.0" y2="194.0" stroke="#444444" stroke-width="2"/>
<line x1="343.0" y1="194.0" x2="419.0" y2="194.0" stroke="#444444" stroke-width="2"/>
<polygon points="419.0,194.0 411.0,190.0 411.0,198.0" fill="#444444" stroke="#444444"/>
<line x1="262.0" y1="867.0" x2="307.0" y2="867.0" stroke="#0050C8" stroke-width="2"/>
<line x1="307.0" y1="867.0" x2="307.0" y2="974.0" stroke="#0050C8" stroke-width="2"/>
<line x1="307.0" y1="974.0" x2="419.0" y2="974.0" stroke="#0050C8" stroke-width="2"/>
<polygon points="419.0,974.0 411.0,970.0 411.0,978.0" fill="#0050C8" stroke="#0050C8"/>
<line x1="262.0" y1="893.0" x2="319.0" y2="893.0" stroke="#7F7F7F" stroke-width="2" stroke-dasharray="7,5"/>
<line x1="319.0" y1="893.0" x2="319.0" y2="1026.0" stroke="#7F7F7F" stroke-width="2" stroke-dasharray="7,5"/>
<line x1="319.0" y1="1026.0" x2="419.0" y2="1026.0" stroke="#7F7F7F" stroke-width="2" stroke-dasharray="7,5"/>
<polygon points="419.0,1026.0 411.0,1022.0 411.0,1030.0" fill="#7F7F7F" stroke="#7F7F7F"/>
<line x1="289.0" y1="324.0" x2="343.0" y2="324.0" stroke="#444444" stroke-width="2"/>
<line x1="343.0" y1="324.0" x2="343.0" y2="480.0" stroke="#444444" stroke-width="2"/>
<line x1="343.0" y1="480.0" x2="419.0" y2="480.0" stroke="#444444" stroke-width="2"/>
<polygon points="419.0,480.0 411.0,476.0 411.0,484.0" fill="#444444" stroke="#444444"/>
<line x1="289.0" y1="350.0" x2="307.0" y2="350.0" stroke="#444444" stroke-width="2"/>
<line x1="307.0" y1="350.0" x2="307.0" y2="506.0" stroke="#444444" stroke-width="2"/>
<line x1="307.0" y1="506.0" x2="419.0" y2="506.0" stroke="#444444" stroke-width="2"/>
<polygon points="419.0,506.0 411.0,502.0 411.0,510.0" fill="#444444" stroke="#444444"/>
<line x1="289.0" y1="376.0" x2="319.0" y2="376.0" stroke="#444444" stroke-width="2"/>
<line x1="319.0" y1="376.0" x2="319.0" y2="532.0" stroke="#444444" stroke-width="2"/>
<line x1="319.0" y1="532.0" x2="419.0" y2="532.0" stroke="#444444" stroke-width="2"/>
<polygon points="419.0,532.0 411.0,528.0 411.0,536.0" fill="#444444" stroke="#444444"/>
<line x1="289.0" y1="402.0" x2="331.0" y2="402.0" stroke="#444444" stroke-width="2"/>
<line x1="331.0" y1="402.0" x2="331.0" y2="558.0" stroke="#444444" stroke-width="2"/>
<line x1="331.0" y1="558.0" x2="419.0" y2="558.0" stroke="#444444" stroke-width="2"/>
<polygon points="419.0,558.0 411.0,554.0 411.0,562.0" fill="#444444" stroke="#444444"/>
<line x1="289.0" y1="428.0" x2="355.0" y2="428.0" stroke="#444444" stroke-width="2"/>
<line x1="355.0" y1="428.0" x2="355.0" y2="584.0" stroke="#444444" stroke-width="2"/>
<line x1="355.0" y1="584.0" x2="419.0" y2="584.0" stroke="#444444" stroke-width="2"/>
<polygon points="419.0,584.0 411.0,580.0 411.0,588.0" fill="#444444" stroke="#444444"/>
<line x1="289.0" y1="454.0" x2="367.0" y2="454.0" stroke="#444444" stroke-width="2"/>
<line x1="367.0" y1="454.0" x2="367.0" y2="610.0" stroke="#444444" stroke-width="2"/>
<line x1="367.0" y1="610.0" x2="419.0" y2="610.0" stroke="#444444" stroke-width="2"/>
<polygon points="419.0,610.0 411.0,606.0 411.0,614.0" fill="#444444" stroke="#444444"/>
<line x1="289.0" y1="480.0" x2="379.0" y2="480.0" stroke="#444444" stroke-width="2"/>
<line x1="379.0" y1="480.0" x2="379.0" y2="636.0" stroke="#444444" stroke-width="2"/>
<line x1="379.0" y1="636.0" x2="419.0" y2="636.0" stroke="#444444" stroke-width="2"/>
<polygon points="419.0,636.0 411.0,632.0 411.0,640.0" fill="#444444" stroke="#444444"/>
<line x1="289.0" y1="506.0" x2="343.0" y2="506.0" stroke="#444444" stroke-width="2"/>
<line x1="343.0" y1="506.0" x2="343.0" y2="662.0" stroke="#444444" stroke-width="2"/>
<line x1="343.0" y1="662.0" x2="419.0" y2="662.0" stroke="#444444" stroke-width="2"/>
<polygon points="419.0,662.0 411.0,658.0 411.0,666.0" fill="#444444" stroke="#444444"/>
<line x1="262.0" y1="841.0" x2="331.0" y2="841.0" stroke="#0050C8" stroke-width="2"/>
<line x1="331.0" y1="841.0" x2="331.0" y2="1000.0" stroke="#0050C8" stroke-width="2"/>
<line x1="331.0" y1="1000.0" x2="419.0" y2="1000.0" stroke="#0050C8" stroke-width="2"/>
<polygon points="419.0,1000.0 411.0,996.0 411.0,1004.0" fill="#0050C8" stroke="#0050C8"/>
<line x1="289.0" y1="532.0" x2="307.0" y2="532.0" stroke="#444444" stroke-width="2"/>
<line x1="307.0" y1="532.0" x2="307.0" y2="792.0" stroke="#444444" stroke-width="2"/>
<line x1="307.0" y1="792.0" x2="419.0" y2="792.0" stroke="#444444" stroke-width="2"/>
<polygon points="419.0,792.0 411.0,788.0 411.0,796.0" fill="#444444" stroke="#444444"/>
<line x1="289.0" y1="558.0" x2="319.0" y2="558.0" stroke="#444444" stroke-width="2"/>
<line x1="319.0" y1="558.0" x2="319.0" y2="818.0" stroke="#444444" stroke-width="2"/>
<line x1="319.0" y1="818.0" x2="419.0" y2="818.0" stroke="#444444" stroke-width="2"/>
<polygon points="419.0,818.0 411.0,814.0 411.0,822.0" fill="#444444" stroke="#444444"/>
<line x1="289.0" y1="584.0" x2="391.0" y2="584.0" stroke="#444444" stroke-width="2"/>
<line x1="391.0" y1="584.0" x2="391.0" y2="844.0" stroke="#444444" stroke-width="2"/>
<line x1="391.0" y1="844.0" x2="419.0" y2="844.0" stroke="#444444" stroke-width="2"/>
<polygon points="419.0,844.0 411.0,840.0 411.0,848.0" fill="#444444" stroke="#444444"/>
<line x1="262.0" y1="687.0" x2="343.0" y2="687.0" stroke="#444444" stroke-width="2"/>
<line x1="343.0" y1="687.0" x2="343.0" y2="974.0" stroke="#444444" stroke-width="2"/>
<line x1="343.0" y1="974.0" x2="419.0" y2="974.0" stroke="#444444" stroke-width="2"/>
<polygon points="419.0,974.0 411.0,970.0 411.0,978.0" fill="#444444" stroke="#444444"/>
<line x1="262.0" y1="713.0" x2="355.0" y2="713.0" stroke="#444444" stroke-width="2"/>
<line x1="355.0" y1="713.0" x2="355.0" y2="1000.0" stroke="#444444" stroke-width="2"/>
<line x1="355.0" y1="1000.0" x2="419.0" y2="1000.0" stroke="#444444" stroke-width="2"/>
<polygon points="419.0,1000.0 411.0,996.0 411.0,1004.0" fill="#444444" stroke="#444444"/>
<line x1="262.0" y1="739.0" x2="367.0" y2="739.0" stroke="#444444" stroke-width="2"/>
<line x1="367.0" y1="739.0" x2="367.0" y2="1026.0" stroke="#444444" stroke-width="2"/>
<line x1="367.0" y1="1026.0" x2="419.0" y2="1026.0" stroke="#444444" stroke-width="2"/>
<polygon points="419.0,1026.0 411.0,1022.0 411.0,1030.0" fill="#444444" stroke="#444444"/>
<line x1="289.0" y1="298.0" x2="403.0" y2="298.0" stroke="#7F7F7F" stroke-width="2" stroke-dasharray="7,5"/>
<line x1="403.0" y1="298.0" x2="403.0" y2="688.0" stroke="#7F7F7F" stroke-width="2" stroke-dasharray="7,5"/>
<line x1="403.0" y1="688.0" x2="419.0" y2="688.0" stroke="#7F7F7F" stroke-width="2" stroke-dasharray="7,5"/>
<polygon points="419.0,688.0 411.0,684.0 411.0,692.0" fill="#7F7F7F" stroke="#7F7F7F"/>
<circle cx="289.0" cy="298.0" r="2.5" fill="black" stroke="black" stroke-width="2"/>
<line x1="289.0" y1="298.0" x2="415.0" y2="298.0" stroke="#7F7F7F" stroke-width="2" stroke-dasharray="7,5"/>
<line x1="415.0" y1="298.0" x2="415.0" y2="870.0" stroke="#7F7F7F" stroke-width="2" stroke-dasharray="7,5"/>
<line x1="415.0" y1="870.0" x2="419.0" y2="870.0" stroke="#7F7F7F" stroke-width="2" stroke-dasharray="7,5"/>
<polygon points="419.0,870.0 411.0,866.0 411.0,874.0" fill="#7F7F7F" stroke="#7F7F7F"/>
<circle cx="289.0" cy="298.0" r="2.5" fill="black" stroke="black" stroke-width="2"/>
<text x="363.0" y="83.0" font-size="9" font-family="Helvetica,Arial,sans-serif" font-weight="normal" fill="#444444" text-anchor="middle" dominant-baseline="central">U1_E</text>
<text x="363.0" y="213.0" font-size="9" font-family="Helvetica,Arial,sans-serif" font-weight="normal" fill="#444444" text-anchor="middle" dominant-baseline="central">U2_S</text>
<text x="369.0" y="239.0" font-size="9" font-family="Helvetica,Arial,sans-serif" font-weight="normal" fill="#444444" text-anchor="middle" dominant-baseline="central">U2_E</text>
<text x="375.0" y="265.0" font-size="9" font-family="Helvetica,Arial,sans-serif" font-weight="normal" fill="#444444" text-anchor="middle" dominant-baseline="central">U3_S</text>
<text x="381.0" y="291.0" font-size="9" font-family="Helvetica,Arial,sans-serif" font-weight="normal" fill="#444444" text-anchor="middle" dominant-baseline="central">U3_E</text>
<text x="363.0" y="317.0" font-size="9" font-family="Helvetica,Arial,sans-serif" font-weight="normal" fill="#444444" text-anchor="middle" dominant-baseline="central">U4_S</text>
<text x="369.0" y="343.0" font-size="9" font-family="Helvetica,Arial,sans-serif" font-weight="normal" fill="#444444" text-anchor="middle" dominant-baseline="central">U4_E</text>
<text x="375.0" y="369.0" font-size="9" font-family="Helvetica,Arial,sans-serif" font-weight="normal" fill="#7F7F7F" text-anchor="middle" dominant-baseline="central">GND</text>
<text x="381.0" y="187.0" font-size="9" font-family="Helvetica,Arial,sans-serif" font-weight="normal" fill="#444444" text-anchor="middle" dominant-baseline="central">U1_S</text>
<text x="363.0" y="967.0" font-size="9" font-family="Helvetica,Arial,sans-serif" font-weight="normal" fill="#0050C8" text-anchor="middle" dominant-baseline="central">SDA</text>
<text x="369.0" y="1019.0" font-size="9" font-family="Helvetica,Arial,sans-serif" font-weight="normal" fill="#7F7F7F" text-anchor="middle" dominant-baseline="central">GND</text>
<text x="381.0" y="473.0" font-size="9" font-family="Helvetica,Arial,sans-serif" font-weight="normal" fill="#444444" text-anchor="middle" dominant-baseline="central">U1_S</text>
<text x="363.0" y="499.0" font-size="9" font-family="Helvetica,Arial,sans-serif" font-weight="normal" fill="#444444" text-anchor="middle" dominant-baseline="central">U1_E</text>
<text x="369.0" y="525.0" font-size="9" font-family="Helvetica,Arial,sans-serif" font-weight="normal" fill="#444444" text-anchor="middle" dominant-baseline="central">U2_S</text>
<text x="375.0" y="551.0" font-size="9" font-family="Helvetica,Arial,sans-serif" font-weight="normal" fill="#444444" text-anchor="middle" dominant-baseline="central">U2_E</text>
<text x="322.0" y="421.0" font-size="9" font-family="Helvetica,Arial,sans-serif" font-weight="normal" fill="#444444" text-anchor="middle" dominant-baseline="central">U3_S</text>
<text x="328.0" y="447.0" font-size="9" font-family="Helvetica,Arial,sans-serif" font-weight="normal" fill="#444444" text-anchor="middle" dominant-baseline="central">U3_E</text>
<text x="334.0" y="473.0" font-size="9" font-family="Helvetica,Arial,sans-serif" font-weight="normal" fill="#444444" text-anchor="middle" dominant-baseline="central">U4_S</text>
<text x="381.0" y="655.0" font-size="9" font-family="Helvetica,Arial,sans-serif" font-weight="normal" fill="#444444" text-anchor="middle" dominant-baseline="central">U4_E</text>
<text x="375.0" y="993.0" font-size="9" font-family="Helvetica,Arial,sans-serif" font-weight="normal" fill="#0050C8" text-anchor="middle" dominant-baseline="central">SCL</text>
<text x="363.0" y="785.0" font-size="9" font-family="Helvetica,Arial,sans-serif" font-weight="normal" fill="#444444" text-anchor="middle" dominant-baseline="central">B2GPIO_16</text>
<text x="369.0" y="811.0" font-size="9" font-family="Helvetica,Arial,sans-serif" font-weight="normal" fill="#444444" text-anchor="middle" dominant-baseline="central">B2GPIO_17</text>
<text x="340.0" y="577.0" font-size="9" font-family="Helvetica,Arial,sans-serif" font-weight="normal" fill="#444444" text-anchor="middle" dominant-baseline="central">B2GPIO_18</text>
<text x="302.5" y="680.0" font-size="9" font-family="Helvetica,Arial,sans-serif" font-weight="normal" fill="#444444" text-anchor="middle" dominant-baseline="central">J5_1</text>
<text x="308.5" y="706.0" font-size="9" font-family="Helvetica,Arial,sans-serif" font-weight="normal" fill="#444444" text-anchor="middle" dominant-baseline="central">J5_2</text>
<text x="314.5" y="732.0" font-size="9" font-family="Helvetica,Arial,sans-serif" font-weight="normal" fill="#444444" text-anchor="middle" dominant-baseline="central">J5_5</text>
<text x="346.0" y="291.0" font-size="9" font-family="Helvetica,Arial,sans-serif" font-weight="normal" fill="#7F7F7F" text-anchor="middle" dominant-baseline="central">GND</text>
<text x="420.0" y="584.0" font-size="9" font-family="Helvetica,Arial,sans-serif" font-weight="normal" fill="#7F7F7F" text-anchor="start" dominant-baseline="central">GND</text>
<rect x="147.0" y="70" width="120" height="534" fill="none" stroke="black" stroke-width="2"/>
<line x1="267.0" y1="90.0" x2="289.0" y2="90.0" stroke="black" stroke-width="2"/>
<text x="262.0" y="90.0" font-size="9" font-family="Helvetica,Arial,sans-serif" font-weight="normal" fill="black" text-anchor="end" dominant-baseline="central">0</text>
<line x1="267.0" y1="116.0" x2="289.0" y2="116.0" stroke="black" stroke-width="2"/>
<text x="262.0" y="116.0" font-size="9" font-family="Helvetica,Arial,sans-serif" font-weight="normal" fill="black" text-anchor="end" dominant-baseline="central">1</text>
<line x1="267.0" y1="142.0" x2="289.0" y2="142.0" stroke="black" stroke-width="2"/>
<text x="262.0" y="142.0" font-size="9" font-family="Helvetica,Arial,sans-serif" font-weight="normal" fill="black" text-anchor="end" dominant-baseline="central">2</text>
<line x1="267.0" y1="168.0" x2="289.0" y2="168.0" stroke="black" stroke-width="2"/>
<text x="262.0" y="168.0" font-size="9" font-family="Helvetica,Arial,sans-serif" font-weight="normal" fill="black" text-anchor="end" dominant-baseline="central">3</text>
<line x1="267.0" y1="194.0" x2="289.0" y2="194.0" stroke="black" stroke-width="2"/>
<text x="262.0" y="194.0" font-size="9" font-family="Helvetica,Arial,sans-serif" font-weight="normal" fill="black" text-anchor="end" dominant-baseline="central">4</text>
<line x1="267.0" y1="220.0" x2="289.0" y2="220.0" stroke="black" stroke-width="2"/>
<text x="262.0" y="220.0" font-size="9" font-family="Helvetica,Arial,sans-serif" font-weight="normal" fill="black" text-anchor="end" dominant-baseline="central">5</text>
<line x1="267.0" y1="246.0" x2="289.0" y2="246.0" stroke="black" stroke-width="2"/>
<text x="262.0" y="246.0" font-size="9" font-family="Helvetica,Arial,sans-serif" font-weight="normal" fill="black" text-anchor="end" dominant-baseline="central">6</text>
<line x1="267.0" y1="272.0" x2="289.0" y2="272.0" stroke="black" stroke-width="2"/>
<text x="262.0" y="272.0" font-size="9" font-family="Helvetica,Arial,sans-serif" font-weight="normal" fill="black" text-anchor="end" dominant-baseline="central">7</text>
<line x1="267.0" y1="298.0" x2="289.0" y2="298.0" stroke="black" stroke-width="2"/>
<text x="262.0" y="298.0" font-size="9" font-family="Helvetica,Arial,sans-serif" font-weight="normal" fill="black" text-anchor="end" dominant-baseline="central">GND</text>
<line x1="267.0" y1="324.0" x2="289.0" y2="324.0" stroke="black" stroke-width="2"/>
<text x="262.0" y="324.0" font-size="9" font-family="Helvetica,Arial,sans-serif" font-weight="normal" fill="black" text-anchor="end" dominant-baseline="central">8</text>
<line x1="267.0" y1="350.0" x2="289.0" y2="350.0" stroke="black" stroke-width="2"/>
<text x="262.0" y="350.0" font-size="9" font-family="Helvetica,Arial,sans-serif" font-weight="normal" fill="black" text-anchor="end" dominant-baseline="central">9</text>
<line x1="267.0" y1="376.0" x2="289.0" y2="376.0" stroke="black" stroke-width="2"/>
<text x="262.0" y="376.0" font-size="9" font-family="Helvetica,Arial,sans-serif" font-weight="normal" fill="black" text-anchor="end" dominant-baseline="central">10</text>
<line x1="267.0" y1="402.0" x2="289.0" y2="402.0" stroke="black" stroke-width="2"/>
<text x="262.0" y="402.0" font-size="9" font-family="Helvetica,Arial,sans-serif" font-weight="normal" fill="black" text-anchor="end" dominant-baseline="central">11</text>
<line x1="267.0" y1="428.0" x2="289.0" y2="428.0" stroke="black" stroke-width="2"/>
<text x="262.0" y="428.0" font-size="9" font-family="Helvetica,Arial,sans-serif" font-weight="normal" fill="black" text-anchor="end" dominant-baseline="central">12</text>
<line x1="267.0" y1="454.0" x2="289.0" y2="454.0" stroke="black" stroke-width="2"/>
<text x="262.0" y="454.0" font-size="9" font-family="Helvetica,Arial,sans-serif" font-weight="normal" fill="black" text-anchor="end" dominant-baseline="central">13</text>
<line x1="267.0" y1="480.0" x2="289.0" y2="480.0" stroke="black" stroke-width="2"/>
<text x="262.0" y="480.0" font-size="9" font-family="Helvetica,Arial,sans-serif" font-weight="normal" fill="black" text-anchor="end" dominant-baseline="central">14</text>
<line x1="267.0" y1="506.0" x2="289.0" y2="506.0" stroke="black" stroke-width="2"/>
<text x="262.0" y="506.0" font-size="9" font-family="Helvetica,Arial,sans-serif" font-weight="normal" fill="black" text-anchor="end" dominant-baseline="central">15</text>
<line x1="267.0" y1="532.0" x2="289.0" y2="532.0" stroke="black" stroke-width="2"/>
<text x="262.0" y="532.0" font-size="9" font-family="Helvetica,Arial,sans-serif" font-weight="normal" fill="black" text-anchor="end" dominant-baseline="central">16</text>
<line x1="267.0" y1="558.0" x2="289.0" y2="558.0" stroke="black" stroke-width="2"/>
<text x="262.0" y="558.0" font-size="9" font-family="Helvetica,Arial,sans-serif" font-weight="normal" fill="black" text-anchor="end" dominant-baseline="central">17</text>
<line x1="267.0" y1="584.0" x2="289.0" y2="584.0" stroke="black" stroke-width="2"/>
<text x="262.0" y="584.0" font-size="9" font-family="Helvetica,Arial,sans-serif" font-weight="normal" fill="black" text-anchor="end" dominant-baseline="central">18</text>
<text x="207.0" y="66" font-size="12" font-family="Helvetica,Arial,sans-serif" font-weight="bold" fill="black" text-anchor="middle" dominant-baseline="text-after-edge">B2GPIO</text>
<text x="207.0" y="607" font-size="8" font-family="Helvetica,Arial,sans-serif" font-weight="normal" fill="#666666" text-anchor="middle" dominant-baseline="hanging">Sensor / Transducer</text>
<rect x="441.0" y="70" width="120" height="40" fill="none" stroke="black" stroke-width="2"/>
<line x1="419.0" y1="90.0" x2="441.0" y2="90.0" stroke="black" stroke-width="2"/>
<text x="446.0" y="90.0" font-size="9" font-family="Helvetica,Arial,sans-serif" font-weight="normal" fill="black" text-anchor="start" dominant-baseline="central">4</text>
<text x="501.0" y="66" font-size="12" font-family="Helvetica,Arial,sans-serif" font-weight="bold" fill="black" text-anchor="middle" dominant-baseline="text-after-edge">B2JX1-CR</text>
<text x="501.0" y="113" font-size="8" font-family="Helvetica,Arial,sans-serif" font-weight="normal" fill="#666666" text-anchor="middle" dominant-baseline="hanging">Sensor / Transducer</text>
<rect x="441.0" y="174" width="120" height="222" fill="none" stroke="black" stroke-width="2"/>
<line x1="419.0" y1="194.0" x2="441.0" y2="194.0" stroke="black" stroke-width="2"/>
<text x="446.0" y="194.0" font-size="9" font-family="Helvetica,Arial,sans-serif" font-weight="normal" fill="black" text-anchor="start" dominant-baseline="central">3</text>
<line x1="419.0" y1="220.0" x2="441.0" y2="220.0" stroke="black" stroke-width="2"/>
<text x="446.0" y="220.0" font-size="9" font-family="Helvetica,Arial,sans-serif" font-weight="normal" fill="black" text-anchor="start" dominant-baseline="central">5</text>
<line x1="419.0" y1="246.0" x2="441.0" y2="246.0" stroke="black" stroke-width="2"/>
<text x="446.0" y="246.0" font-size="9" font-family="Helvetica,Arial,sans-serif" font-weight="normal" fill="black" text-anchor="start" dominant-baseline="central">6</text>
<line x1="419.0" y1="272.0" x2="441.0" y2="272.0" stroke="black" stroke-width="2"/>
<text x="446.0" y="272.0" font-size="9" font-family="Helvetica,Arial,sans-serif" font-weight="normal" fill="black" text-anchor="start" dominant-baseline="central">7</text>
<line x1="419.0" y1="298.0" x2="441.0" y2="298.0" stroke="black" stroke-width="2"/>
<text x="446.0" y="298.0" font-size="9" font-family="Helvetica,Arial,sans-serif" font-weight="normal" fill="black" text-anchor="start" dominant-baseline="central">8</text>
<line x1="419.0" y1="324.0" x2="441.0" y2="324.0" stroke="black" stroke-width="2"/>
<text x="446.0" y="324.0" font-size="9" font-family="Helvetica,Arial,sans-serif" font-weight="normal" fill="black" text-anchor="start" dominant-baseline="central">9</text>
<line x1="419.0" y1="350.0" x2="441.0" y2="350.0" stroke="black" stroke-width="2"/>
<text x="446.0" y="350.0" font-size="9" font-family="Helvetica,Arial,sans-serif" font-weight="normal" fill="black" text-anchor="start" dominant-baseline="central">10</text>
<line x1="419.0" y1="376.0" x2="441.0" y2="376.0" stroke="black" stroke-width="2"/>
<text x="446.0" y="376.0" font-size="9" font-family="Helvetica,Arial,sans-serif" font-weight="normal" fill="black" text-anchor="start" dominant-baseline="central">13</text>
<text x="501.0" y="170" font-size="12" font-family="Helvetica,Arial,sans-serif" font-weight="bold" fill="black" text-anchor="middle" dominant-baseline="text-after-edge">B3JX1-CR</text>
<text x="501.0" y="399" font-size="8" font-family="Helvetica,Arial,sans-serif" font-weight="normal" fill="#666666" text-anchor="middle" dominant-baseline="hanging">Sensor / Transducer</text>
<rect x="441.0" y="460" width="120" height="248" fill="none" stroke="black" stroke-width="2"/>
<line x1="419.0" y1="480.0" x2="441.0" y2="480.0" stroke="black" stroke-width="2"/>
<text x="446.0" y="480.0" font-size="9" font-family="Helvetica,Arial,sans-serif" font-weight="normal" fill="black" text-anchor="start" dominant-baseline="central">3</text>
<line x1="419.0" y1="506.0" x2="441.0" y2="506.0" stroke="black" stroke-width="2"/>
<text x="446.0" y="506.0" font-size="9" font-family="Helvetica,Arial,sans-serif" font-weight="normal" fill="black" text-anchor="start" dominant-baseline="central">4</text>
<line x1="419.0" y1="532.0" x2="441.0" y2="532.0" stroke="black" stroke-width="2"/>
<text x="446.0" y="532.0" font-size="9" font-family="Helvetica,Arial,sans-serif" font-weight="normal" fill="black" text-anchor="start" dominant-baseline="central">5</text>
<line x1="419.0" y1="558.0" x2="441.0" y2="558.0" stroke="black" stroke-width="2"/>
<text x="446.0" y="558.0" font-size="9" font-family="Helvetica,Arial,sans-serif" font-weight="normal" fill="black" text-anchor="start" dominant-baseline="central">6</text>
<line x1="419.0" y1="584.0" x2="441.0" y2="584.0" stroke="black" stroke-width="2"/>
<text x="446.0" y="584.0" font-size="9" font-family="Helvetica,Arial,sans-serif" font-weight="normal" fill="black" text-anchor="start" dominant-baseline="central">7</text>
<line x1="419.0" y1="610.0" x2="441.0" y2="610.0" stroke="black" stroke-width="2"/>
<text x="446.0" y="610.0" font-size="9" font-family="Helvetica,Arial,sans-serif" font-weight="normal" fill="black" text-anchor="start" dominant-baseline="central">8</text>
<line x1="419.0" y1="636.0" x2="441.0" y2="636.0" stroke="black" stroke-width="2"/>
<text x="446.0" y="636.0" font-size="9" font-family="Helvetica,Arial,sans-serif" font-weight="normal" fill="black" text-anchor="start" dominant-baseline="central">9</text>
<line x1="419.0" y1="662.0" x2="441.0" y2="662.0" stroke="black" stroke-width="2"/>
<text x="446.0" y="662.0" font-size="9" font-family="Helvetica,Arial,sans-serif" font-weight="normal" fill="black" text-anchor="start" dominant-baseline="central">10</text>
<line x1="419.0" y1="688.0" x2="441.0" y2="688.0" stroke="black" stroke-width="2"/>
<text x="446.0" y="688.0" font-size="9" font-family="Helvetica,Arial,sans-serif" font-weight="normal" fill="black" text-anchor="start" dominant-baseline="central">13</text>
<text x="501.0" y="456" font-size="12" font-family="Helvetica,Arial,sans-serif" font-weight="bold" fill="black" text-anchor="middle" dominant-baseline="text-after-edge">B3JX2-CR</text>
<text x="501.0" y="711" font-size="8" font-family="Helvetica,Arial,sans-serif" font-weight="normal" fill="#666666" text-anchor="middle" dominant-baseline="hanging">Sensor / Transducer</text>
<rect x="441.0" y="954" width="120" height="92" fill="none" stroke="black" stroke-width="2"/>
<line x1="419.0" y1="974.0" x2="441.0" y2="974.0" stroke="black" stroke-width="2"/>
<text x="446.0" y="974.0" font-size="9" font-family="Helvetica,Arial,sans-serif" font-weight="normal" fill="black" text-anchor="start" dominant-baseline="central">2</text>
<line x1="419.0" y1="1000.0" x2="441.0" y2="1000.0" stroke="black" stroke-width="2"/>
<text x="446.0" y="1000.0" font-size="9" font-family="Helvetica,Arial,sans-serif" font-weight="normal" fill="black" text-anchor="start" dominant-baseline="central">3</text>
<line x1="419.0" y1="1026.0" x2="441.0" y2="1026.0" stroke="black" stroke-width="2"/>
<text x="446.0" y="1026.0" font-size="9" font-family="Helvetica,Arial,sans-serif" font-weight="normal" fill="black" text-anchor="start" dominant-baseline="central">5</text>
<text x="501.0" y="950" font-size="12" font-family="Helvetica,Arial,sans-serif" font-weight="bold" fill="black" text-anchor="middle" dominant-baseline="text-after-edge">DB9F</text>
<text x="501.0" y="1049" font-size="8" font-family="Helvetica,Arial,sans-serif" font-weight="normal" fill="#666666" text-anchor="middle" dominant-baseline="hanging">Diode / LED</text>
<rect x="174.0" y="668" width="66" height="90" fill="none" stroke="black" stroke-width="2"/>
<line x1="240.0" y1="687.0" x2="262.0" y2="687.0" stroke="black" stroke-width="2"/>
<circle cx="240.0" cy="687.0" r="3" fill="white" stroke="black" stroke-width="2"/>
<text x="232.0" y="687.0" font-size="9" font-family="Helvetica,Arial,sans-serif" font-weight="normal" fill="black" text-anchor="end" dominant-baseline="central">1</text>
<line x1="240.0" y1="713.0" x2="262.0" y2="713.0" stroke="black" stroke-width="2"/>
<circle cx="240.0" cy="713.0" r="3" fill="white" stroke="black" stroke-width="2"/>
<text x="232.0" y="713.0" font-size="9" font-family="Helvetica,Arial,sans-serif" font-weight="normal" fill="black" text-anchor="end" dominant-baseline="central">2</text>
<line x1="240.0" y1="739.0" x2="262.0" y2="739.0" stroke="black" stroke-width="2"/>
<circle cx="240.0" cy="739.0" r="3" fill="white" stroke="black" stroke-width="2"/>
<text x="232.0" y="739.0" font-size="9" font-family="Helvetica,Arial,sans-serif" font-weight="normal" fill="black" text-anchor="end" dominant-baseline="central">5</text>
<text x="207.0" y="664" font-size="12" font-family="Helvetica,Arial,sans-serif" font-weight="bold" fill="black" text-anchor="middle" dominant-baseline="text-after-edge">J5</text>
<rect x="174.0" y="822" width="66" height="90" fill="none" stroke="black" stroke-width="2"/>
<line x1="240.0" y1="841.0" x2="262.0" y2="841.0" stroke="black" stroke-width="2"/>
<circle cx="240.0" cy="841.0" r="3" fill="white" stroke="black" stroke-width="2"/>
<text x="232.0" y="841.0" font-size="9" font-family="Helvetica,Arial,sans-serif" font-weight="normal" fill="black" text-anchor="end" dominant-baseline="central">1</text>
<line x1="240.0" y1="867.0" x2="262.0" y2="867.0" stroke="black" stroke-width="2"/>
<circle cx="240.0" cy="867.0" r="3" fill="white" stroke="black" stroke-width="2"/>
<text x="232.0" y="867.0" font-size="9" font-family="Helvetica,Arial,sans-serif" font-weight="normal" fill="black" text-anchor="end" dominant-baseline="central">2</text>
<line x1="240.0" y1="893.0" x2="262.0" y2="893.0" stroke="black" stroke-width="2"/>
<circle cx="240.0" cy="893.0" r="3" fill="white" stroke="black" stroke-width="2"/>
<text x="232.0" y="893.0" font-size="9" font-family="Helvetica,Arial,sans-serif" font-weight="normal" fill="black" text-anchor="end" dominant-baseline="central">3</text>
<text x="207.0" y="818" font-size="12" font-family="Helvetica,Arial,sans-serif" font-weight="bold" fill="black" text-anchor="middle" dominant-baseline="text-after-edge">JF3</text>
<rect x="441.0" y="772" width="120" height="118" fill="none" stroke="black" stroke-width="2"/>
<line x1="419.0" y1="792.0" x2="441.0" y2="792.0" stroke="black" stroke-width="2"/>
<text x="446.0" y="792.0" font-size="9" font-family="Helvetica,Arial,sans-serif" font-weight="normal" fill="black" text-anchor="start" dominant-baseline="central">1</text>
<line x1="419.0" y1="818.0" x2="441.0" y2="818.0" stroke="black" stroke-width="2"/>
<text x="446.0" y="818.0" font-size="9" font-family="Helvetica,Arial,sans-serif" font-weight="normal" fill="black" text-anchor="start" dominant-baseline="central">3</text>
<line x1="419.0" y1="844.0" x2="441.0" y2="844.0" stroke="black" stroke-width="2"/>
<text x="446.0" y="844.0" font-size="9" font-family="Helvetica,Arial,sans-serif" font-weight="normal" fill="black" text-anchor="start" dominant-baseline="central">5</text>
<line x1="419.0" y1="870.0" x2="441.0" y2="870.0" stroke="black" stroke-width="2"/>
<text x="446.0" y="870.0" font-size="9" font-family="Helvetica,Arial,sans-serif" font-weight="normal" fill="black" text-anchor="start" dominant-baseline="central">8</text>
<text x="501.0" y="768" font-size="12" font-family="Helvetica,Arial,sans-serif" font-weight="bold" fill="black" text-anchor="middle" dominant-baseline="text-after-edge">NJXCR1</text>
<text x="501.0" y="893" font-size="8" font-family="Helvetica,Arial,sans-serif" font-weight="normal" fill="#666666" text-anchor="middle" dominant-baseline="hanging">Integrated circuit</text>
<rect x="60" y="1146" width="170" height="74" fill="none" stroke="black" stroke-width="1"/>
<text x="145.0" y="1156" font-size="10" font-family="Helvetica,Arial,sans-serif" font-weight="bold" fill="black" text-anchor="middle" dominant-baseline="central">Legend</text>
<rect x="68" y="1164" width="16" height="12" fill="#0050C8" stroke="black" stroke-width="1"/>
<text x="90" y="1170" font-size="9" font-family="Helvetica,Arial,sans-serif" font-weight="normal" fill="black" text-anchor="start" dominant-baseline="central">Data / Communication</text>
<rect x="68" y="1182" width="16" height="12" fill="#7F7F7F" stroke="black" stroke-width="1"/>
<text x="90" y="1188" font-size="9" font-family="Helvetica,Arial,sans-serif" font-weight="normal" fill="black" text-anchor="start" dominant-baseline="central">Ground</text>
<rect x="68" y="1200" width="16" height="12" fill="#444444" stroke="black" stroke-width="1"/>
<text x="90" y="1206" font-size="9" font-family="Helvetica,Arial,sans-serif" font-weight="normal" fill="black" text-anchor="start" dominant-baseline="central">Other</text>
<rect x="74.0" y="1228" width="560" height="26" fill="none" stroke="black" stroke-width="2"/>
<text x="354.0" y="1241" font-size="13" font-family="Helvetica,Arial,sans-serif" font-weight="bold" fill="black" text-anchor="middle" dominant-baseline="central">GPIO — Wiring Diagram</text>
<rect x="74.0" y="1254" width="140.0" height="22" fill="none" stroke="black" stroke-width="2"/>
<text x="144.0" y="1265" font-size="10" font-family="Helvetica,Arial,sans-serif" font-weight="normal" fill="black" text-anchor="middle" dominant-baseline="central">Doc: TUM-001</text>
<rect x="214.0" y="1254" width="140.0" height="22" fill="none" stroke="black" stroke-width="2"/>
<text x="284.0" y="1265" font-size="10" font-family="Helvetica,Arial,sans-serif" font-weight="normal" fill="black" text-anchor="middle" dominant-baseline="central">Rev: 1.0</text>
<rect x="354.0" y="1254" width="140.0" height="22" fill="none" stroke="black" stroke-width="2"/>
<text x="424.0" y="1265" font-size="10" font-family="Helvetica,Arial,sans-serif" font-weight="normal" fill="black" text-anchor="middle" dominant-baseline="central">Date: 2026-07-06</text>
<rect x="494.0" y="1254" width="140.0" height="22" fill="none" stroke="black" stroke-width="2"/>
<text x="564.0" y="1265" font-size="10" font-family="Helvetica,Arial,sans-serif" font-weight="normal" fill="black" text-anchor="middle" dominant-baseline="central">Sheet: GPIO</text>
</svg>
