<?xml version="1.0" encoding="UTF-8" standalone="no"?>
<!DOCTYPE svg PUBLIC "-//W3C//DTD SVG 1.1//EN"
 "http://www.w3.org/Graphics/SVG/1.1/DTD/svg11.dtd">
<!-- Generated by graphviz version 2.43.0 (0)
 -->
<!-- Title: Motor_Drive Pages: 1 -->
<svg width="530pt" height="679pt"
 viewBox="0.00 0.00 530.00 678.50" xmlns="http://www.w3.org/2000/svg" xmlns:xlink="http://www.w3.org/1999/xlink">
<g id="graph0" class="graph" transform="scale(1 1) rotate(0) translate(4 674.5)">
<title>Motor_Drive</title>
<polygon fill="white" stroke="transparent" points="-4,4 -4,-674.5 526,-674.5 526,4 -4,4"/>
<polygon fill="none" stroke="black" points="35,-30 35,-55 488,-55 488,-30 35,-30"/>
<text text-anchor="start" x="142.5" y="-39.8" font-family="Helvetica,sans-Serif" font-weight="bold" font-size="14.00">Motor Drive — Wiring Diagram</text>
<polygon fill="none" stroke="black" points="35,-5 35,-30 144,-30 144,-5 35,-5"/>
<text text-anchor="start" x="40" y="-13.8" font-family="Helvetica,sans-Serif" font-size="14.00">Doc: TUM&#45;001</text>
<polygon fill="none" stroke="black" points="144,-5 144,-30 211,-30 211,-5 144,-5"/>
<text text-anchor="start" x="149" y="-13.8" font-family="Helvetica,sans-Serif" font-size="14.00">Rev: 1.0</text>
<polygon fill="none" stroke="black" points="211,-5 211,-30 345,-30 345,-5 211,-5"/>
<text text-anchor="start" x="216" y="-13.8" font-family="Helvetica,sans-Serif" font-size="14.00">Date: 2026&#45;07&#45;05</text>
<polygon fill="none" stroke="black" points="345,-5 345,-30 488,-30 488,-5 345,-5"/>
<text text-anchor="start" x="350" y="-13.8" font-family="Helvetica,sans-Serif" font-size="14.00">Sheet: Motor_Drive</text>
<polygon fill="none" stroke="black" points="33.5,-4 33.5,-56 488.5,-56 488.5,-4 33.5,-4"/>
<!-- U3&#45;&gt;U2 -->
<g id="edge1" class="edge">
<title>U3:e&#45;&gt;U2:w</title>
<path fill="none" stroke="#00802b" stroke-width="1.3" d="M97,-593C97,-593 209.55,-593 237.68,-593"/>
<polygon fill="#00802b" stroke="#00802b" stroke-width="1.3" points="238,-595.1 244,-593 238,-590.9 238,-595.1"/>
<text text-anchor="start" x="137.34" y="-586.6" font-family="Helvetica,sans-Serif" font-size="8.00" fill="#00802b">PWM_U</text>
</g>
<!-- U3&#45;&gt;U2 -->
<g id="edge2" class="edge">
<title>U3:e&#45;&gt;U2:w</title>
<path fill="none" stroke="#00802b" stroke-width="1.3" d="M97,-575C97,-575 209.55,-575 237.68,-575"/>
<polygon fill="#00802b" stroke="#00802b" stroke-width="1.3" points="238,-577.1 244,-575 238,-572.9 238,-577.1"/>
<text text-anchor="start" x="138.34" y="-568.6" font-family="Helvetica,sans-Serif" font-size="8.00" fill="#00802b">PWM_V</text>
</g>
<!-- U3&#45;&gt;U2 -->
<g id="edge3" class="edge">
<title>U3:e&#45;&gt;U2:w</title>
<path fill="none" stroke="#00802b" stroke-width="1.3" d="M97,-557C97,-557 209.55,-557 237.68,-557"/>
<polygon fill="#00802b" stroke="#00802b" stroke-width="1.3" points="238,-559.1 244,-557 238,-554.9 238,-559.1"/>
<text text-anchor="start" x="135.34" y="-550.6" font-family="Helvetica,sans-Serif" font-size="8.00" fill="#00802b">PWM_W</text>
</g>
<!-- U3&#45;&gt;U2 -->
<g id="edge4" class="edge">
<title>U3:e&#45;&gt;U2:w</title>
<path fill="none" stroke="#00802b" stroke-width="1.3" d="M103.32,-539C131.45,-539 244,-539 244,-539"/>
<polygon fill="#00802b" stroke="#00802b" stroke-width="1.3" points="103,-536.9 97,-539 103,-541.1 103,-536.9"/>
<text text-anchor="start" x="129.66" y="-532.6" font-family="Helvetica,sans-Serif" font-size="8.00" fill="#00802b">DRV_FAULT</text>
</g>
<!-- U2&#45;&gt;M1 -->
<g id="edge5" class="edge">
<title>U2:e&#45;&gt;M1:w</title>
<path fill="none" stroke="#800080" stroke-width="2.2" d="M330,-521C330,-521 443.31,-521 471.64,-521"/>
<polygon fill="#800080" stroke="#800080" stroke-width="2.2" points="472,-523.1 478,-521 472,-518.9 472,-523.1"/>
<text text-anchor="start" x="363.82" y="-514.6" font-family="Helvetica,sans-Serif" font-size="8.00" fill="#800080">PHASE_U</text>
</g>
<!-- U2&#45;&gt;M1 -->
<g id="edge6" class="edge">
<title>U2:e&#45;&gt;M1:w</title>
<path fill="none" stroke="#800080" stroke-width="2.2" d="M330,-503C330,-503 443.31,-503 471.64,-503"/>
<polygon fill="#800080" stroke="#800080" stroke-width="2.2" points="472,-505.1 478,-503 472,-500.9 472,-505.1"/>
<text text-anchor="start" x="364.82" y="-496.6" font-family="Helvetica,sans-Serif" font-size="8.00" fill="#800080">PHASE_V</text>
</g>
<!-- U2&#45;&gt;M1 -->
<g id="edge7" class="edge">
<title>U2:e&#45;&gt;M1:w</title>
<path fill="none" stroke="#800080" stroke-width="2.2" d="M330,-485C330,-485 443.31,-485 471.64,-485"/>
<polygon fill="#800080" stroke="#800080" stroke-width="2.2" points="472,-487.1 478,-485 472,-482.9 472,-487.1"/>
<text text-anchor="start" x="361.82" y="-478.6" font-family="Helvetica,sans-Serif" font-size="8.00" fill="#800080">PHASE_W</text>
</g>
<!-- R2&#45;&gt;U2 -->
<g id="edge8" class="edge">
<title>R2:e&#45;&gt;U2:w</title>
<path fill="none" stroke="#b45f06" stroke-width="1.3" d="M96,-383C96,-383 212.37,-449.05 238.73,-464.01"/>
<polygon fill="#b45f06" stroke="#b45f06" stroke-width="1.3" points="237.75,-465.86 244,-467 239.82,-462.21 237.75,-465.86"/>
<text text-anchor="start" x="130.37" y="-417.11" font-family="Helvetica,sans-Serif" font-size="8.00" fill="#b45f06">V_SENSE</text>
</g>
<!-- D1&#45;&gt;U2 -->
<g id="edge9" class="edge">
<title>D1:e&#45;&gt;U2:w</title>
<path fill="none" stroke="#c00000" stroke-width="2.2" d="M89,-227C89,-227 217.4,-425.81 240.47,-461.54"/>
<polygon fill="#c00000" stroke="#c00000" stroke-width="2.2" points="238.98,-463.1 244,-467 242.51,-460.82 238.98,-463.1"/>
<text text-anchor="start" x="132.74" y="-337.87" font-family="Helvetica,sans-Serif" font-size="8.00" fill="#c00000">DC_BUS</text>
</g>
<!-- legend -->
<g id="node1" class="node">
<title>legend</title>
<text text-anchor="start" x="33.5" y="-132.8" font-family="Helvetica,sans-Serif" font-weight="bold" font-size="9.00">Legend</text>
<polygon fill="#b45f06" stroke="transparent" points="11,-112 11,-125 25,-125 25,-112 11,-112"/>
<text text-anchor="start" x="29" y="-116.6" font-family="Helvetica,sans-Serif" font-size="8.00">Analog / Sense</text>
<polygon fill="#00802b" stroke="transparent" points="11,-97 11,-110 25,-110 25,-97 11,-97"/>
<text text-anchor="start" x="29" y="-101.6" font-family="Helvetica,sans-Serif" font-size="8.00">Control / Status</text>
<polygon fill="#800080" stroke="transparent" points="11,-82 11,-95 25,-95 25,-82 11,-82"/>
<text text-anchor="start" x="29" y="-86.6" font-family="Helvetica,sans-Serif" font-size="8.00">Motor Phase</text>
<polygon fill="#c00000" stroke="transparent" points="11,-67 11,-80 25,-80 25,-67 11,-67"/>
<text text-anchor="start" x="29" y="-71.6" font-family="Helvetica,sans-Serif" font-size="8.00">Power</text>
<polygon fill="none" stroke="black" points="8,-64 8,-144 98,-144 98,-64 8,-64"/>
</g>
<!-- U3 -->
<g id="node2" class="node">
<title>U3</title>
<polygon fill="#1f4e79" stroke="transparent" points="10,-645 10,-665 96,-665 96,-645 10,-645"/>
<polygon fill="none" stroke="black" points="10,-645 10,-665 96,-665 96,-645 10,-645"/>
<text text-anchor="start" x="44.5" y="-653.2" font-family="Helvetica,sans-Serif" font-weight="bold" font-size="11.00" fill="white">U3</text>
<polygon fill="#ededed" stroke="transparent" points="10,-628 10,-645 96,-645 96,-628 10,-628"/>
<polygon fill="none" stroke="black" points="10,-628 10,-645 96,-645 96,-628 10,-628"/>
<text text-anchor="start" x="22.5" y="-634.6" font-family="Helvetica,sans-Serif" font-size="8.00">Microcontroller</text>
<polygon fill="#ffffff" stroke="transparent" points="10,-602 10,-628 96,-628 96,-602 10,-602"/>
<polygon fill="none" stroke="black" points="10,-602 10,-628 96,-628 96,-602 10,-602"/>
<text text-anchor="start" x="14" y="-617.6" font-family="Helvetica,sans-Serif" font-size="8.00">STMicroelectronics</text>
<text text-anchor="start" x="28" y="-608.6" font-family="Helvetica,sans-Serif" font-size="8.00">STM32G474</text>
<polygon fill="#ffffff" stroke="transparent" points="10,-584 10,-602 96,-602 96,-584 10,-584"/>
<polygon fill="none" stroke="black" points="10,-584 10,-602 96,-602 96,-584 10,-584"/>
<text text-anchor="start" x="14" y="-590.8" font-family="Helvetica,sans-Serif" font-size="9.00">PA0</text>
<polygon fill="#ffffff" stroke="transparent" points="10,-566 10,-584 96,-584 96,-566 10,-566"/>
<polygon fill="none" stroke="black" points="10,-566 10,-584 96,-584 96,-566 10,-566"/>
<text text-anchor="start" x="14" y="-572.8" font-family="Helvetica,sans-Serif" font-size="9.00">PA1</text>
<polygon fill="#ffffff" stroke="transparent" points="10,-548 10,-566 96,-566 96,-548 10,-548"/>
<polygon fill="none" stroke="black" points="10,-548 10,-566 96,-566 96,-548 10,-548"/>
<text text-anchor="start" x="14" y="-554.8" font-family="Helvetica,sans-Serif" font-size="9.00">PA2</text>
<polygon fill="#ffffff" stroke="transparent" points="10,-530 10,-548 96,-548 96,-530 10,-530"/>
<polygon fill="none" stroke="black" points="10,-530 10,-548 96,-548 96,-530 10,-530"/>
<text text-anchor="start" x="14" y="-536.8" font-family="Helvetica,sans-Serif" font-size="9.00">PB0</text>
<polygon fill="none" stroke="black" points="9,-529.5 9,-666.5 97,-666.5 97,-529.5 9,-529.5"/>
</g>
<!-- U2 -->
<g id="node3" class="node">
<title>U2</title>
<polygon fill="#1f4e79" stroke="transparent" points="245,-645 245,-665 329,-665 329,-645 245,-645"/>
<polygon fill="none" stroke="black" points="245,-645 245,-665 329,-665 329,-645 245,-645"/>
<text text-anchor="start" x="278.5" y="-653.2" font-family="Helvetica,sans-Serif" font-weight="bold" font-size="11.00" fill="white">U2</text>
<polygon fill="#ededed" stroke="transparent" points="245,-628 245,-645 329,-645 329,-628 245,-628"/>
<polygon fill="none" stroke="black" points="245,-628 245,-645 329,-645 329,-628 245,-628"/>
<text text-anchor="start" x="249" y="-634.6" font-family="Helvetica,sans-Serif" font-size="8.00">Motor Controller IC</text>
<polygon fill="#ffffff" stroke="transparent" points="245,-602 245,-628 329,-628 329,-602 245,-602"/>
<polygon fill="none" stroke="black" points="245,-602 245,-628 329,-628 329,-602 245,-602"/>
<text text-anchor="start" x="270" y="-617.6" font-family="Helvetica,sans-Serif" font-size="8.00">Infineon</text>
<text text-anchor="start" x="269" y="-608.6" font-family="Helvetica,sans-Serif" font-size="8.00">IMC300A</text>
<polygon fill="#ffffff" stroke="transparent" points="245,-584 245,-602 329,-602 329,-584 245,-584"/>
<polygon fill="none" stroke="black" points="245,-584 245,-602 329,-602 329,-584 245,-584"/>
<text text-anchor="start" x="249" y="-590.8" font-family="Helvetica,sans-Serif" font-size="9.00">IN_U</text>
<polygon fill="#ffffff" stroke="transparent" points="245,-566 245,-584 329,-584 329,-566 245,-566"/>
<polygon fill="none" stroke="black" points="245,-566 245,-584 329,-584 329,-566 245,-566"/>
<text text-anchor="start" x="249" y="-572.8" font-family="Helvetica,sans-Serif" font-size="9.00">IN_V</text>
<polygon fill="#ffffff" stroke="transparent" points="245,-548 245,-566 329,-566 329,-548 245,-548"/>
<polygon fill="none" stroke="black" points="245,-548 245,-566 329,-566 329,-548 245,-548"/>
<text text-anchor="start" x="249" y="-554.8" font-family="Helvetica,sans-Serif" font-size="9.00">IN_W</text>
<polygon fill="#ffffff" stroke="transparent" points="245,-530 245,-548 329,-548 329,-530 245,-530"/>
<polygon fill="none" stroke="black" points="245,-530 245,-548 329,-548 329,-530 245,-530"/>
<text text-anchor="start" x="249" y="-536.8" font-family="Helvetica,sans-Serif" font-size="9.00">FAULT</text>
<polygon fill="#ffffff" stroke="transparent" points="245,-512 245,-530 329,-530 329,-512 245,-512"/>
<polygon fill="none" stroke="black" points="245,-512 245,-530 329,-530 329,-512 245,-512"/>
<text text-anchor="start" x="249" y="-518.8" font-family="Helvetica,sans-Serif" font-size="9.00">OUT1</text>
<polygon fill="#ffffff" stroke="transparent" points="245,-494 245,-512 329,-512 329,-494 245,-494"/>
<polygon fill="none" stroke="black" points="245,-494 245,-512 329,-512 329,-494 245,-494"/>
<text text-anchor="start" x="249" y="-500.8" font-family="Helvetica,sans-Serif" font-size="9.00">OUT2</text>
<polygon fill="#ffffff" stroke="transparent" points="245,-476 245,-494 329,-494 329,-476 245,-476"/>
<polygon fill="none" stroke="black" points="245,-476 245,-494 329,-494 329,-476 245,-476"/>
<text text-anchor="start" x="249" y="-482.8" font-family="Helvetica,sans-Serif" font-size="9.00">OUT3</text>
<polygon fill="#ffffff" stroke="transparent" points="245,-458 245,-476 329,-476 329,-458 245,-458"/>
<polygon fill="none" stroke="black" points="245,-458 245,-476 329,-476 329,-458 245,-458"/>
<text text-anchor="start" x="249" y="-464.8" font-family="Helvetica,sans-Serif" font-size="9.00">VDC</text>
<polygon fill="none" stroke="black" points="244,-457.5 244,-666.5 330,-666.5 330,-457.5 244,-457.5"/>
</g>
<!-- M1 -->
<g id="node4" class="node">
<title>M1</title>
<polygon fill="#5b2c6f" stroke="transparent" points="479,-547 479,-567 511,-567 511,-547 479,-547"/>
<polygon fill="none" stroke="black" points="479,-547 479,-567 511,-567 511,-547 479,-547"/>
<text text-anchor="start" x="485.5" y="-555.2" font-family="Helvetica,sans-Serif" font-weight="bold" font-size="11.00" fill="white">M1</text>
<polygon fill="#ededed" stroke="transparent" points="479,-530 479,-547 511,-547 511,-530 479,-530"/>
<polygon fill="none" stroke="black" points="479,-530 479,-547 511,-547 511,-530 479,-530"/>
<text text-anchor="start" x="483" y="-536.6" font-family="Helvetica,sans-Serif" font-size="8.00">Motor</text>
<polygon fill="#ffffff" stroke="transparent" points="479,-512 479,-530 511,-530 511,-512 479,-512"/>
<polygon fill="none" stroke="black" points="479,-512 479,-530 511,-530 511,-512 479,-512"/>
<text text-anchor="start" x="483" y="-518.8" font-family="Helvetica,sans-Serif" font-size="9.00">U</text>
<polygon fill="#ffffff" stroke="transparent" points="479,-494 479,-512 511,-512 511,-494 479,-494"/>
<polygon fill="none" stroke="black" points="479,-494 479,-512 511,-512 511,-494 479,-494"/>
<text text-anchor="start" x="483" y="-500.8" font-family="Helvetica,sans-Serif" font-size="9.00">V</text>
<polygon fill="#ffffff" stroke="transparent" points="479,-476 479,-494 511,-494 511,-476 479,-476"/>
<polygon fill="none" stroke="black" points="479,-476 479,-494 511,-494 511,-476 479,-476"/>
<text text-anchor="start" x="483" y="-482.8" font-family="Helvetica,sans-Serif" font-size="9.00">W</text>
<polygon fill="none" stroke="black" points="478,-475.5 478,-568.5 512,-568.5 512,-475.5 478,-475.5"/>
</g>
<!-- R2 -->
<g id="node5" class="node">
<title>R2</title>
<polygon fill="#375623" stroke="transparent" points="11,-435 11,-455 95,-455 95,-435 11,-435"/>
<polygon fill="none" stroke="black" points="11,-435 11,-455 95,-455 95,-435 11,-435"/>
<text text-anchor="start" x="45" y="-443.2" font-family="Helvetica,sans-Serif" font-weight="bold" font-size="11.00" fill="white">R2</text>
<polygon fill="#ededed" stroke="transparent" points="11,-418 11,-435 95,-435 95,-418 11,-418"/>
<polygon fill="none" stroke="black" points="11,-418 11,-435 95,-435 95,-418 11,-418"/>
<text text-anchor="start" x="36" y="-424.6" font-family="Helvetica,sans-Serif" font-size="8.00">Resistor</text>
<polygon fill="#ffffff" stroke="transparent" points="11,-392 11,-418 95,-418 95,-392 11,-392"/>
<polygon fill="none" stroke="black" points="11,-392 11,-418 95,-418 95,-392 11,-392"/>
<text text-anchor="start" x="40.5" y="-407.6" font-family="Helvetica,sans-Serif" font-size="8.00">Yageo</text>
<text text-anchor="start" x="15" y="-398.6" font-family="Helvetica,sans-Serif" font-size="8.00">RC0402FR&#45;0710KL</text>
<polygon fill="#ffffff" stroke="transparent" points="11,-374 11,-392 95,-392 95,-374 11,-374"/>
<polygon fill="none" stroke="black" points="11,-374 11,-392 95,-392 95,-374 11,-374"/>
<text text-anchor="start" x="15" y="-380.8" font-family="Helvetica,sans-Serif" font-size="9.00">Pin_1</text>
<polygon fill="none" stroke="black" points="10,-373.5 10,-456.5 96,-456.5 96,-373.5 10,-373.5"/>
</g>
<!-- D1 -->
<g id="node6" class="node">
<title>D1</title>
<polygon fill="#843c0c" stroke="transparent" points="18,-279 18,-299 88,-299 88,-279 18,-279"/>
<polygon fill="none" stroke="black" points="18,-279 18,-299 88,-299 88,-279 18,-279"/>
<text text-anchor="start" x="44.5" y="-287.2" font-family="Helvetica,sans-Serif" font-weight="bold" font-size="11.00" fill="white">D1</text>
<polygon fill="#ededed" stroke="transparent" points="18,-262 18,-279 88,-279 88,-262 18,-262"/>
<polygon fill="none" stroke="black" points="18,-262 18,-279 88,-279 88,-262 18,-262"/>
<text text-anchor="start" x="22" y="-268.6" font-family="Helvetica,sans-Serif" font-size="8.00">Schottky Diode</text>
<polygon fill="#ffffff" stroke="transparent" points="18,-236 18,-262 88,-262 88,-236 18,-236"/>
<polygon fill="none" stroke="black" points="18,-236 18,-262 88,-262 88,-236 18,-236"/>
<text text-anchor="start" x="39" y="-251.6" font-family="Helvetica,sans-Serif" font-size="8.00">Vishay</text>
<text text-anchor="start" x="42" y="-242.6" font-family="Helvetica,sans-Serif" font-size="8.00">SS34</text>
<polygon fill="#ffffff" stroke="transparent" points="18,-218 18,-236 88,-236 88,-218 18,-218"/>
<polygon fill="none" stroke="black" points="18,-218 18,-236 88,-236 88,-218 18,-218"/>
<text text-anchor="start" x="22" y="-224.8" font-family="Helvetica,sans-Serif" font-size="9.00">CATHODE</text>
<polygon fill="none" stroke="black" points="17,-217.5 17,-300.5 89,-300.5 89,-217.5 17,-217.5"/>
</g>
</g>
</svg>
