<?xml version="1.0" encoding="UTF-8" standalone="no"?>
<!DOCTYPE svg PUBLIC "-//W3C//DTD SVG 1.1//EN"
 "http://www.w3.org/Graphics/SVG/1.1/DTD/svg11.dtd">
<!-- Generated by graphviz version 2.43.0 (0)
 -->
<!-- Title: Power_Distribution Pages: 1 -->
<svg width="1009pt" height="371pt"
 viewBox="0.00 0.00 1009.00 371.00" xmlns="http://www.w3.org/2000/svg" xmlns:xlink="http://www.w3.org/1999/xlink">
<g id="graph0" class="graph" transform="scale(1 1) rotate(0) translate(4 367)">
<title>Power_Distribution</title>
<polygon fill="white" stroke="transparent" points="-4,4 -4,-367 1005,-367 1005,4 -4,4"/>
<polygon fill="none" stroke="black" points="251.5,-30 251.5,-55 750.5,-55 750.5,-30 251.5,-30"/>
<text text-anchor="start" x="355" y="-39.8" font-family="Helvetica,sans-Serif" font-weight="bold" font-size="14.00">Power Distribution — Wiring Diagram</text>
<polygon fill="none" stroke="black" points="251.5,-5 251.5,-30 360.5,-30 360.5,-5 251.5,-5"/>
<text text-anchor="start" x="256.5" y="-13.8" font-family="Helvetica,sans-Serif" font-size="14.00">Doc: TUM&#45;001</text>
<polygon fill="none" stroke="black" points="360.5,-5 360.5,-30 427.5,-30 427.5,-5 360.5,-5"/>
<text text-anchor="start" x="365.5" y="-13.8" font-family="Helvetica,sans-Serif" font-size="14.00">Rev: 1.0</text>
<polygon fill="none" stroke="black" points="427.5,-5 427.5,-30 561.5,-30 561.5,-5 427.5,-5"/>
<text text-anchor="start" x="432.5" y="-13.8" font-family="Helvetica,sans-Serif" font-size="14.00">Date: 2026&#45;07&#45;05</text>
<polygon fill="none" stroke="black" points="561.5,-5 561.5,-30 750.5,-30 750.5,-5 561.5,-5"/>
<text text-anchor="start" x="566.5" y="-13.8" font-family="Helvetica,sans-Serif" font-size="14.00">Sheet: Power_Distribution</text>
<polygon fill="none" stroke="black" points="250,-4 250,-56 751,-56 751,-4 250,-4"/>
<!-- CON1&#45;&gt;D1 -->
<g id="edge1" class="edge">
<title>CON1:e&#45;&gt;D1:w</title>
<path fill="none" stroke="#c00000" stroke-width="2.2" d="M92,-229.5C92,-229.5 210.46,-273.14 238.23,-283.37"/>
<polygon fill="#c00000" stroke="#c00000" stroke-width="2.2" points="237.64,-285.4 244,-285.5 239.1,-281.46 237.64,-285.4"/>
<text text-anchor="start" x="137.11" y="-250.04" font-family="Helvetica,sans-Serif" font-size="8.00" fill="#c00000">12V_IN</text>
</g>
<!-- CON1&#45;&gt;C1 -->
<g id="edge2" class="edge">
<title>CON1:e&#45;&gt;C1:w</title>
<path fill="none" stroke="#7f7f7f" stroke-width="1.3" stroke-dasharray="5,2" d="M92,-211.5C92,-211.5 407.78,-163.71 455.89,-156.43"/>
<polygon fill="#7f7f7f" stroke="#7f7f7f" stroke-width="1.3" points="456.38,-158.47 462,-155.5 455.75,-154.32 456.38,-158.47"/>
<text text-anchor="start" x="254.94" y="-177.56" font-family="Helvetica,sans-Serif" font-size="8.00" fill="#7f7f7f">GND</text>
</g>
<!-- D1&#45;&gt;C1 -->
<g id="edge3" class="edge">
<title>D1:e&#45;&gt;C1:w</title>
<path fill="none" stroke="#c00000" stroke-width="2.2" d="M316,-267.5C316,-267.5 432.83,-163.48 457.47,-141.53"/>
<polygon fill="#c00000" stroke="#c00000" stroke-width="2.2" points="458.92,-143.06 462,-137.5 456.12,-139.92 458.92,-143.06"/>
<text text-anchor="start" x="345.74" y="-198.12" font-family="Helvetica,sans-Serif" font-size="8.00" fill="#c00000">12V_PROT</text>
</g>
<!-- D1&#45;&gt;U1 -->
<g id="edge4" class="edge">
<title>D1:e&#45;&gt;U1:w</title>
<path fill="none" stroke="#c00000" stroke-width="2.2" d="M316,-267.5C316,-267.5 572,-265.5 572,-265.5 572,-265.5 676.71,-255.64 703.71,-253.09"/>
<polygon fill="#c00000" stroke="#c00000" stroke-width="2.2" points="704.22,-255.15 710,-252.5 703.83,-250.97 704.22,-255.15"/>
<text text-anchor="start" x="485.15" y="-259.58" font-family="Helvetica,sans-Serif" font-size="8.00" fill="#c00000">V_BAT</text>
</g>
<!-- C1&#45;&gt;U1 -->
<g id="edge5" class="edge">
<title>C1:e&#45;&gt;U1:w</title>
<path fill="none" stroke="#7f7f7f" stroke-width="1.3" stroke-dasharray="5,2" d="M564,-155.5C564,-155.5 677.79,-217.07 704.45,-231.5"/>
<polygon fill="#7f7f7f" stroke="#7f7f7f" stroke-width="1.3" points="703.72,-233.49 710,-234.5 705.72,-229.8 703.72,-233.49"/>
<text text-anchor="start" x="597.23" y="-187.1" font-family="Helvetica,sans-Serif" font-size="8.00" fill="#7f7f7f">GND_REF</text>
</g>
<!-- U1&#45;&gt;CON2 -->
<g id="edge6" class="edge">
<title>U1:e&#45;&gt;CON2:w</title>
<path fill="none" stroke="#00802b" stroke-width="1.3" d="M794,-216.5C794,-216.5 906.16,-216.5 934.21,-216.5"/>
<polygon fill="#00802b" stroke="#00802b" stroke-width="1.3" points="934.5,-218.6 940.5,-216.5 934.5,-214.4 934.5,-218.6"/>
<text text-anchor="start" x="864.1" y="-210.1" font-family="Helvetica,sans-Serif" font-size="8.00" fill="#00802b">BMS_HW_ALERT</text>
</g>
<!-- legend -->
<g id="node1" class="node">
<title>legend</title>
<text text-anchor="start" x="33.5" y="-117.3" font-family="Helvetica,sans-Serif" font-weight="bold" font-size="9.00">Legend</text>
<polygon fill="#00802b" stroke="transparent" points="11,-96.5 11,-109.5 25,-109.5 25,-96.5 11,-96.5"/>
<text text-anchor="start" x="29" y="-101.1" font-family="Helvetica,sans-Serif" font-size="8.00">Control / Status</text>
<polygon fill="#7f7f7f" stroke="transparent" points="11,-81.5 11,-94.5 25,-94.5 25,-81.5 11,-81.5"/>
<text text-anchor="start" x="29" y="-86.1" font-family="Helvetica,sans-Serif" font-size="8.00">Ground</text>
<polygon fill="#c00000" stroke="transparent" points="11,-66.5 11,-79.5 25,-79.5 25,-66.5 11,-66.5"/>
<text text-anchor="start" x="29" y="-71.1" font-family="Helvetica,sans-Serif" font-size="8.00">Power</text>
<polygon fill="none" stroke="black" points="8,-64 8,-129 98,-129 98,-64 8,-64"/>
</g>
<!-- CON1 -->
<g id="node2" class="node">
<title>CON1</title>
<polygon fill="#7f6000" stroke="transparent" points="16,-281.5 16,-301.5 91,-301.5 91,-281.5 16,-281.5"/>
<polygon fill="none" stroke="black" points="16,-281.5 16,-301.5 91,-301.5 91,-281.5 16,-281.5"/>
<text text-anchor="start" x="36.5" y="-289.7" font-family="Helvetica,sans-Serif" font-weight="bold" font-size="11.00" fill="white">CON1</text>
<polygon fill="#ededed" stroke="transparent" points="16,-264.5 16,-281.5 91,-281.5 91,-264.5 16,-264.5"/>
<polygon fill="none" stroke="black" points="16,-264.5 16,-281.5 91,-281.5 91,-264.5 16,-264.5"/>
<text text-anchor="start" x="32" y="-271.1" font-family="Helvetica,sans-Serif" font-size="8.00">Connector</text>
<polygon fill="#ffffff" stroke="transparent" points="16,-238.5 16,-264.5 91,-264.5 91,-238.5 16,-238.5"/>
<polygon fill="none" stroke="black" points="16,-238.5 16,-264.5 91,-264.5 91,-238.5 16,-238.5"/>
<text text-anchor="start" x="20" y="-254.1" font-family="Helvetica,sans-Serif" font-size="8.00">Phoenix Contact</text>
<text text-anchor="start" x="20.5" y="-245.1" font-family="Helvetica,sans-Serif" font-size="8.00">MSTBVA 2.5/2&#45;G</text>
<polygon fill="#ffffff" stroke="transparent" points="16,-220.5 16,-238.5 91,-238.5 91,-220.5 16,-220.5"/>
<polygon fill="none" stroke="black" points="16,-220.5 16,-238.5 91,-238.5 91,-220.5 16,-220.5"/>
<text text-anchor="start" x="20" y="-227.3" font-family="Helvetica,sans-Serif" font-size="9.00">Pin_1</text>
<polygon fill="#ffffff" stroke="transparent" points="16,-202.5 16,-220.5 91,-220.5 91,-202.5 16,-202.5"/>
<polygon fill="none" stroke="black" points="16,-202.5 16,-220.5 91,-220.5 91,-202.5 16,-202.5"/>
<text text-anchor="start" x="20" y="-209.3" font-family="Helvetica,sans-Serif" font-size="9.00">Pin_2</text>
<polygon fill="none" stroke="black" points="14.5,-202 14.5,-303 91.5,-303 91.5,-202 14.5,-202"/>
</g>
<!-- D1 -->
<g id="node3" class="node">
<title>D1</title>
<polygon fill="#843c0c" stroke="transparent" points="245,-337.5 245,-357.5 315,-357.5 315,-337.5 245,-337.5"/>
<polygon fill="none" stroke="black" points="245,-337.5 245,-357.5 315,-357.5 315,-337.5 245,-337.5"/>
<text text-anchor="start" x="271.5" y="-345.7" font-family="Helvetica,sans-Serif" font-weight="bold" font-size="11.00" fill="white">D1</text>
<polygon fill="#ededed" stroke="transparent" points="245,-320.5 245,-337.5 315,-337.5 315,-320.5 245,-320.5"/>
<polygon fill="none" stroke="black" points="245,-320.5 245,-337.5 315,-337.5 315,-320.5 245,-320.5"/>
<text text-anchor="start" x="249" y="-327.1" font-family="Helvetica,sans-Serif" font-size="8.00">Schottky Diode</text>
<polygon fill="#ffffff" stroke="transparent" points="245,-294.5 245,-320.5 315,-320.5 315,-294.5 245,-294.5"/>
<polygon fill="none" stroke="black" points="245,-294.5 245,-320.5 315,-320.5 315,-294.5 245,-294.5"/>
<text text-anchor="start" x="266" y="-310.1" font-family="Helvetica,sans-Serif" font-size="8.00">Vishay</text>
<text text-anchor="start" x="269" y="-301.1" font-family="Helvetica,sans-Serif" font-size="8.00">SS34</text>
<polygon fill="#ffffff" stroke="transparent" points="245,-276.5 245,-294.5 315,-294.5 315,-276.5 245,-276.5"/>
<polygon fill="none" stroke="black" points="245,-276.5 245,-294.5 315,-294.5 315,-276.5 245,-276.5"/>
<text text-anchor="start" x="249" y="-283.3" font-family="Helvetica,sans-Serif" font-size="9.00">ANODE</text>
<polygon fill="#ffffff" stroke="transparent" points="245,-258.5 245,-276.5 315,-276.5 315,-258.5 245,-258.5"/>
<polygon fill="none" stroke="black" points="245,-258.5 245,-276.5 315,-276.5 315,-258.5 245,-258.5"/>
<text text-anchor="start" x="249" y="-265.3" font-family="Helvetica,sans-Serif" font-size="9.00">CATHODE</text>
<polygon fill="none" stroke="black" points="244,-258 244,-359 316,-359 316,-258 244,-258"/>
</g>
<!-- C1 -->
<g id="node4" class="node">
<title>C1</title>
<polygon fill="#1f4e79" stroke="transparent" points="463,-207.5 463,-227.5 563,-227.5 563,-207.5 463,-207.5"/>
<polygon fill="none" stroke="black" points="463,-207.5 463,-227.5 563,-227.5 563,-207.5 463,-207.5"/>
<text text-anchor="start" x="505" y="-215.7" font-family="Helvetica,sans-Serif" font-weight="bold" font-size="11.00" fill="white">C1</text>
<polygon fill="#ededed" stroke="transparent" points="463,-190.5 463,-207.5 563,-207.5 563,-190.5 463,-190.5"/>
<polygon fill="none" stroke="black" points="463,-190.5 463,-207.5 563,-207.5 563,-190.5 463,-190.5"/>
<text text-anchor="start" x="475.5" y="-197.1" font-family="Helvetica,sans-Serif" font-size="8.00">Ceramic Capacitor</text>
<polygon fill="#ffffff" stroke="transparent" points="463,-164.5 463,-190.5 563,-190.5 563,-164.5 463,-164.5"/>
<polygon fill="none" stroke="black" points="463,-164.5 463,-190.5 563,-190.5 563,-164.5 463,-164.5"/>
<text text-anchor="start" x="498.5" y="-180.1" font-family="Helvetica,sans-Serif" font-size="8.00">Murata</text>
<text text-anchor="start" x="467" y="-171.1" font-family="Helvetica,sans-Serif" font-size="8.00">GRM31CR71E106KA12</text>
<polygon fill="#ffffff" stroke="transparent" points="463,-146.5 463,-164.5 563,-164.5 563,-146.5 463,-146.5"/>
<polygon fill="none" stroke="black" points="463,-146.5 463,-164.5 563,-164.5 563,-146.5 463,-146.5"/>
<text text-anchor="start" x="467" y="-153.3" font-family="Helvetica,sans-Serif" font-size="9.00">NEG</text>
<polygon fill="#ffffff" stroke="transparent" points="463,-128.5 463,-146.5 563,-146.5 563,-128.5 463,-128.5"/>
<polygon fill="none" stroke="black" points="463,-128.5 463,-146.5 563,-146.5 563,-128.5 463,-128.5"/>
<text text-anchor="start" x="467" y="-135.3" font-family="Helvetica,sans-Serif" font-size="9.00">POS</text>
<polygon fill="none" stroke="black" points="462,-128 462,-229 564,-229 564,-128 462,-128"/>
</g>
<!-- U1 -->
<g id="node5" class="node">
<title>U1</title>
<polygon fill="#1f4e79" stroke="transparent" points="711,-304.5 711,-324.5 793,-324.5 793,-304.5 711,-304.5"/>
<polygon fill="none" stroke="black" points="711,-304.5 711,-324.5 793,-324.5 793,-304.5 711,-304.5"/>
<text text-anchor="start" x="743.5" y="-312.7" font-family="Helvetica,sans-Serif" font-weight="bold" font-size="11.00" fill="white">U1</text>
<polygon fill="#ededed" stroke="transparent" points="711,-287.5 711,-304.5 793,-304.5 793,-287.5 711,-287.5"/>
<polygon fill="none" stroke="black" points="711,-287.5 711,-304.5 793,-304.5 793,-287.5 711,-287.5"/>
<text text-anchor="start" x="715.5" y="-294.1" font-family="Helvetica,sans-Serif" font-size="8.00">Battery Monitor IC</text>
<polygon fill="#ffffff" stroke="transparent" points="711,-261.5 711,-287.5 793,-287.5 793,-261.5 711,-261.5"/>
<polygon fill="none" stroke="black" points="711,-261.5 711,-287.5 793,-287.5 793,-261.5 711,-261.5"/>
<text text-anchor="start" x="715" y="-277.1" font-family="Helvetica,sans-Serif" font-size="8.00">Texas Instruments</text>
<text text-anchor="start" x="733" y="-268.1" font-family="Helvetica,sans-Serif" font-size="8.00">BQ76952</text>
<polygon fill="#ffffff" stroke="transparent" points="711,-243.5 711,-261.5 793,-261.5 793,-243.5 711,-243.5"/>
<polygon fill="none" stroke="black" points="711,-243.5 711,-261.5 793,-261.5 793,-243.5 711,-243.5"/>
<text text-anchor="start" x="715" y="-250.3" font-family="Helvetica,sans-Serif" font-size="9.00">BAT+</text>
<polygon fill="#ffffff" stroke="transparent" points="711,-225.5 711,-243.5 793,-243.5 793,-225.5 711,-225.5"/>
<polygon fill="none" stroke="black" points="711,-225.5 711,-243.5 793,-243.5 793,-225.5 711,-225.5"/>
<text text-anchor="start" x="715" y="-232.3" font-family="Helvetica,sans-Serif" font-size="9.00">GND</text>
<polygon fill="#ffffff" stroke="transparent" points="711,-207.5 711,-225.5 793,-225.5 793,-207.5 711,-207.5"/>
<polygon fill="none" stroke="black" points="711,-207.5 711,-225.5 793,-225.5 793,-207.5 711,-207.5"/>
<text text-anchor="start" x="715" y="-214.3" font-family="Helvetica,sans-Serif" font-size="9.00">ALERT</text>
<polygon fill="none" stroke="black" points="710,-207 710,-326 794,-326 794,-207 710,-207"/>
</g>
<!-- CON2 -->
<g id="node6" class="node">
<title>CON2</title>
<polygon fill="#7f6000" stroke="transparent" points="941.5,-242.5 941.5,-262.5 992.5,-262.5 992.5,-242.5 941.5,-242.5"/>
<polygon fill="none" stroke="black" points="941.5,-242.5 941.5,-262.5 992.5,-262.5 992.5,-242.5 941.5,-242.5"/>
<text text-anchor="start" x="950" y="-250.7" font-family="Helvetica,sans-Serif" font-weight="bold" font-size="11.00" fill="white">CON2</text>
<polygon fill="#ededed" stroke="transparent" points="941.5,-225.5 941.5,-242.5 992.5,-242.5 992.5,-225.5 941.5,-225.5"/>
<polygon fill="none" stroke="black" points="941.5,-225.5 941.5,-242.5 992.5,-242.5 992.5,-225.5 941.5,-225.5"/>
<text text-anchor="start" x="945.5" y="-232.1" font-family="Helvetica,sans-Serif" font-size="8.00">Connector</text>
<polygon fill="#ffffff" stroke="transparent" points="941.5,-207.5 941.5,-225.5 992.5,-225.5 992.5,-207.5 941.5,-207.5"/>
<polygon fill="none" stroke="black" points="941.5,-207.5 941.5,-225.5 992.5,-225.5 992.5,-207.5 941.5,-207.5"/>
<text text-anchor="start" x="945.5" y="-214.3" font-family="Helvetica,sans-Serif" font-size="9.00">Pin_1</text>
<polygon fill="none" stroke="black" points="940,-207 940,-264 993,-264 993,-207 940,-207"/>
</g>
</g>
</svg>
